<svg xmlns="http://www.w3.org/2000/svg" width="256" height="256"><path fill-opacity=".016" d="M0 128.004v128.004l128.25-.254 128.25-.254.254-127.75L257.008 0H0v128.004m.485.496c0 70.4.119 99.053.265 63.672.146-35.38.146-92.98 0-128C.604 29.153.485 58.1.485 128.5" fill="#1976D2" fill-rule="evenodd"/><path fill-opacity=".394" d="M106.729 5.447C67.337 12.397 29.17 41.298 11.99 77.185c-7.622 15.92-10.971 31.299-10.982 50.434-.015 23.363 5.723 42.972 18.617 63.626 6.837 10.952 20.821 25.179 32.962 33.534 6.138 4.225 21.104 11.157 29.913 13.857 8.295 2.542 10.331 2.761 26 2.788 23.541.041 37.975-3.057 58.387-12.53 18.596-8.631 38.073-25.04 48.705-41.033 7.72-11.611 14.738-31.125 16.991-47.239 1.123-8.027-1.482-5.225-5.045 5.428-3.583 10.716-5.884 15.474-12.309 25.45-21.198 32.915-53.024 51.645-87.899 51.73-10.891.026-23.359-2.355-25.437-4.859-1.632-1.966-.094-6.797 6.077-19.095 8.089-16.121 16.403-27.769 28.468-39.886 12.563-12.618 23.768-20.568 41.675-29.569 16.288-8.187 16.125-9.407-.975-7.295-16.216 2.003-22.177 3.748-35.388 10.363-6.463 3.236-11.75 5.578-11.75 5.205 0-1.08 7.958-8.375 14.589-13.373 6.787-5.116 11.899-10.531 12.89-13.655.799-2.516 1.539-2.522 8.521-.066 11.182 3.934 21.306 2.048 33.719-6.279C209.171 98.379 212 93.778 212 84.746c0-11.837-6.223-34.696-10.651-39.124-1.657-1.657-5.702-3.58-10.801-5.136C176.555 36.218 172 37.412 172 45.349c0 7.733 4.87 10.969 12.893 8.565 4.996-1.497 6.383-.571 8.047 5.371.845 3.018.953 7.864.375 16.731L192.5 88.5l-5.638-.326c-4.136-.239-6.992.256-10.723 1.861l-5.085 2.188-3.161-2.659c-10.118-8.514-20.88-8.645-37.114-.452-6.523 3.292-8.58 3.569-9.461 1.274-.341-.887-3.364-2.912-6.719-4.499-4.918-2.327-7.455-2.885-13.099-2.882-7.459.003-11.635 1.716-16.23 6.657l-2.231 2.399-4.072-2.078c-2.737-1.396-5.634-2.006-8.839-1.86-2.622.12-5.253-.082-5.847-.449-.612-.379-1.372-5.968-1.757-12.921-.552-9.989-.381-13.077.929-16.712 1.981-5.5 3.164-6.29 6.688-4.468C77.253 57.251 85 52.902 85 45.232 85 40.563 82.661 38 78.401 38c-3.624 0-16.585 3.527-20.611 5.608-3.861 1.997-6.853 8.6-10.746 23.71-3.548 13.775-3.979 23.316-1.292 28.662 2.088 4.156 9.387 9.902 18.058 14.215 7.502 3.732 14.663 4.142 23.136 1.325 5.306-1.764 5.481-1.762 6.774.084.729 1.043 3.348 4.667 5.819 8.054 10.762 14.752 11.167 20.854 3.056 46.031-6.408 19.892-7.833 27.448-7.46 39.559.338 11.022-.34 11.854-6.796 8.339-13.952-7.596-30.514-23.06-40.189-37.524-15.881-23.741-23.085-48.471-21.851-75.002.775-16.651 3.994-29.172 11.199-43.561 7.595-15.169 11.081-19.583 19.213-24.327C77.812 20.865 105.511 13 127.762 13c23.777 0 44.393 5.13 68.689 17.093 22.977 11.313 39.54 36.437 45.021 68.288 2.383 13.849 2.011 33.732-.891 47.619-6.499 31.105-18.11 54.484-35.346 71.171-11.86 11.483-21.3 17.375-44.735 27.925-4.118 1.854-4.603 2.321-2.747 2.647 3.447.607 12.63-2.413 22.677-7.457 32.939-16.538 53.864-40.357 65.945-75.064 5.412-15.548 6.826-23.792 6.9-40.222.071-15.772-1.864-27.548-6.589-40.102-7.697-20.449-17.752-33.654-38.951-51.154-15.401-12.714-35.614-22.58-54.998-26.846-12.006-2.642-35.126-3.371-46.008-1.451M125.5 43.968c-4.517 1.031-7.16 2.717-9.867 6.295-7.21 9.531-4.62 21.66 5.69 26.651 10.419 5.044 21.533-.237 24.619-11.699 3.235-12.013-8.312-24.014-20.442-21.247m55 95.914c-6.506 2.356-14.861 6.613-20.5 10.445-9.923 6.744-23.33 21.34-29.993 32.654C123.854 193.43 118.933 210 121.984 210c.541 0 3.047-4.162 5.569-9.25 9.456-19.072 30.128-41.667 49.208-53.784 5.601-3.556 10.195-7.028 10.211-7.716.036-1.598-.439-1.552-6.472.632" fill="#1976D2" fill-rule="evenodd"/><path fill-opacity=".494" d="M103.625 6.554C66.24 13.982 29.498 42.291 13.026 76.358c-17.029 35.22-15.346 77.015 4.411 109.538 4.11 6.766 7.027 7.81 6.075 2.173-.529-3.13-.137-4.147 3.018-7.833 3.182-3.717 4.137-4.238 7.798-4.25 5.901-.019 8.411-.879 8.986-3.08.275-1.05.139-1.686-.302-1.413-.442.272-1.069-.2-1.396-1.051-.326-.85-.169-1.284.348-.964.518.32-1.254-4.044-3.937-9.698-10-21.071-14.355-43.648-12.21-63.294 2.184-20.003 7.561-35.6 17.409-50.491 6.506-9.839 10.513-12.847 26.827-20.141 21.55-9.635 44.981-14.62 63.447-13.499 17.007 1.032 32.925 4.374 47.927 10.062 5.228 1.982 7.113 2.327 7.684 1.403 1.117-1.807.638-2.2-7.511-6.174-10.109-4.929-23.284-9.232-33.985-11.098-10.921-1.905-34.391-1.901-43.99.006M67.768 40.441c-9.646 2.876-12.207 4.539-14.793 9.608C50.075 55.733 44 80.119 44 86.075c0 2.744.613 6.457 1.363 8.252 1.863 4.458 9.036 10.542 17.658 14.978 8.301 4.269 13.651 4.732 23.323 2.018l5.976-1.676 1.881 2.426c13.344 17.219 14.301 19.23 14.245 29.927-.038 7.283-.635 10.218-4.167 20.5-5.344 15.554-7.072 22.426-7.911 31.45-.508 5.469-.386 7.179.474 6.648.637-.394 1.158-.274 1.158.266 0 .541 1.369.3 3.043-.535 1.674-.835 3.703-1.615 4.508-1.734.805-.118 4.216-4.688 7.579-10.155 16.627-27.031 34.472-43.462 62.906-57.921 7.13-3.625 12.964-7.064 12.964-7.641 0-1.386-12.526-.295-24.993 2.178-7.267 1.442-12.381 3.322-21.813 8.017-6.776 3.374-12.547 5.908-12.824 5.631-.783-.784 5.859-7.05 15.712-14.823 5.611-4.426 9.714-8.522 10.935-10.915 1.075-2.107 2.341-4.069 2.813-4.361.473-.292 3.292.425 6.265 1.593 7.434 2.921 17.735 2.938 24.179.04 8.768-3.943 17.392-10.3 19.849-14.632 3.196-5.636 3.034-15.561-.491-29.993-3.257-13.332-5.647-18.921-9.042-21.146-3.16-2.07-17.935-6.467-21.732-6.467-5.484 0-7.817 8.239-3.785 13.365 1.62 2.061 2.943 2.635 6.065 2.635 2.197 0 4.864-.466 5.928-1.035 3.15-1.686 5.427.404 7.33 6.726 1.468 4.878 1.577 6.851.684 12.309-.586 3.575-1.068 8.611-1.072 11.191-.005 2.58-.487 4.987-1.072 5.348-.585.362-4.072.747-7.75.856-3.677.109-8.094.818-9.815 1.575-2.983 1.313-3.358 1.21-8-2.188-10.019-7.335-18.3-7.223-34.679.469l-8.808 4.136-2.192-2.612c-5.02-5.983-18.227-9.404-26.177-6.78-2.077.686-5.52 2.821-7.651 4.747l-3.874 3.5-5.095-2.192c-3.694-1.589-6.121-2.019-8.824-1.562-2.526.427-4.063.208-4.764-.679-.57-.72-1.572-6.183-2.225-12.14-1.047-9.533-.989-11.45.482-16 2.47-7.638 3.38-8.309 8.502-6.259 7.242 2.897 12.457.303 13.604-6.767.403-2.479.07-4.391-1.065-6.124-2.086-3.182-5.369-3.199-15.837-.078m54.732 4.921c-15.045 6.993-13.379 28.362 2.545 32.65 13.586 3.658 25.512-11.606 19.299-24.7-3.387-7.137-14.719-11.262-21.844-7.95" fill="#1976D2" fill-rule="evenodd"/><path fill-opacity=".805" d="M118.269 5.693c.973.254 2.323.237 3-.037.677-.274-.119-.481-1.769-.461-1.65.02-2.204.244-1.231.498m12.493.014c1.244.239 3.044.23 4-.02s-.062-.446-2.262-.435c-2.2.011-2.982.216-1.738.455M67.686 40.986c-5.398 1.581-10.422 3.38-11.164 3.996C52.35 48.444 44.853 74.147 44.704 85.5c-.143 10.885 2.96 14.962 17.442 22.918 9.522 5.231 17.726 5.566 28.027 1.145 1.933-.829 2.848.065 9.965 9.737 5.736 7.793 8.808 14.013 8.84 17.893.012 1.481.958 4.28 2.103 6.22 1.999 3.387 2.262 3.506 6.65 2.99 2.512-.296 4.838-.169 5.168.281.331.451 2.304 2.281 4.386 4.068 4.073 3.496 10.034 4.437 12.662 1.998 1.087-1.009 1.196-.986.567.12-.429.753 1.736-.68 4.812-3.185 9.059-7.379 17.41-12.734 30.166-19.346 13.358-6.924 13.562-8.081 1.212-6.898-15.685 1.502-27.779 5.646-43.684 14.968-3.449 2.021-6.452 3.492-6.675 3.269-.787-.786 8.027-9.8 14.551-14.882 9.363-7.293 13.803-11.654 15.133-14.866 1.631-3.937 3.384-4.252 10.079-1.81 8.984 3.275 18.458 2.394 27.522-2.56 10.123-5.533 13.379-8.326 15.624-13.401 1.722-3.893 1.93-5.878 1.429-13.608-.607-9.367-4.506-25.324-7.735-31.653-2.176-4.265-5.36-5.954-16.829-8.927-9.998-2.592-12.521-1.971-13.515 3.327-1.321 7.04 2.621 11.411 9.26 10.268 8.195-1.411 8.506-1.325 10.636 2.934 1.35 2.701 1.99 5.949 1.969 10-.039 7.566-1.22 21.289-1.931 22.439-.297.479-3.15.635-6.341.345-4.694-.426-6.62-.109-10.086 1.659-3.957 2.019-4.45 2.066-6.448.61-8.723-6.356-9.991-6.949-15.749-7.366-7.295-.527-13.329.936-22.189 5.383-8.122 4.076-9.192 4.173-11.255 1.025-2.321-3.543-11.757-7.063-18.97-7.076-4.74-.009-6.973.559-10.633 2.708-2.548 1.496-4.896 3.407-5.218 4.246-.739 1.925-4.543 1.922-7.09-.005C77.333 89.541 74.315 89 70.368 89c-3.438 0-6.527-.448-6.866-.996-.338-.548-1.083-6.286-1.656-12.75-.948-10.714-.866-12.241.917-17.254 2.148-6.038 1.719-5.873 11.529-4.433 4.178.612 5.107.407 7.25-1.607 4.43-4.161 2.745-14.073-2.363-13.905-.924.031-6.095 1.349-11.493 2.931m54.284 5.264c-8.713 4.402-12.05 13.983-7.832 22.488 5.582 11.255 21.668 12.588 28.407 2.356 6.452-9.795 3.037-21.03-7.763-25.541-5.019-2.097-7.555-1.959-12.812.697" fill="#1976D2" fill-rule="evenodd"/></svg>